REM DIRINDEX 1\2,1\3
REM DIRNAME cjc143,folder01,folder02
TITLE ""
FILE "2000 phrasesTrack35.mp3" MP3
  TRACK 01 AUDIO
    TITLE "2:cjc143_1257"
    INDEX 01 00:00:00
  TRACK 02 AUDIO
    TITLE "0:"
    INDEX 01 00:00:62
  TRACK 03 AUDIO
    TITLE "2:cjc143_1258"
    INDEX 01 00:01:28
  TRACK 04 AUDIO
    TITLE "0:"
    INDEX 01 00:02:67
  TRACK 05 AUDIO
    TITLE "2:cjc143_1259"
    INDEX 01 00:03:37
  TRACK 06 AUDIO
    TITLE "0:"
    INDEX 01 00:05:10
  TRACK 07 AUDIO
    TITLE "2:cjc143_1260"
    INDEX 01 00:05:54
  TRACK 08 AUDIO
    TITLE "0:"
    INDEX 01 00:07:27
  TRACK 09 AUDIO
    TITLE "2:cjc143_1261"
    INDEX 01 00:08:01
  TRACK 10 AUDIO
    TITLE "0:"
    INDEX 01 00:09:49
  TRACK 11 AUDIO
    TITLE "2:cjc143_1262"
    INDEX 01 00:10:19
  TRACK 12 AUDIO
    TITLE "0:"
    INDEX 01 00:11:70
  TRACK 13 AUDIO
    TITLE "2:cjc143_1263"
    INDEX 01 00:12:42
  TRACK 14 AUDIO
    TITLE "0:"
    INDEX 01 00:14:23
  TRACK 15 AUDIO
    TITLE "2:cjc143_1264"
    INDEX 01 00:14:70
  TRACK 16 AUDIO
    TITLE "0:"
    INDEX 01 00:16:44
  TRACK 17 AUDIO
    TITLE "2:cjc143_1265"
    INDEX 01 00:17:14
  TRACK 18 AUDIO
    TITLE "0:"
    INDEX 01 00:19:09
  TRACK 19 AUDIO
    TITLE "2:cjc143_1266"
    INDEX 01 00:19:54
  TRACK 20 AUDIO
    TITLE "0:"
    INDEX 01 00:21:51
  TRACK 21 AUDIO
    TITLE "2:cjc143_1267"
    INDEX 01 00:22:29
  TRACK 22 AUDIO
    TITLE "0:"
    INDEX 01 00:24:18
  TRACK 23 AUDIO
    TITLE "2:cjc143_1268"
    INDEX 01 00:24:69
  TRACK 24 AUDIO
    TITLE "0:"
    INDEX 01 00:26:32
  TRACK 25 AUDIO
    TITLE "2:cjc143_1269"
    INDEX 01 00:27:08
  TRACK 26 AUDIO
    TITLE "0:"
    INDEX 01 00:29:03
  TRACK 27 AUDIO
    TITLE "2:cjc143_1270"
    INDEX 01 00:29:50
  TRACK 28 AUDIO
    TITLE "0:"
    INDEX 01 00:31:39
  TRACK 29 AUDIO
    TITLE "2:cjc143_1271"
    INDEX 01 00:32:07
  TRACK 30 AUDIO
    TITLE "0:"
    INDEX 01 00:33:56
  TRACK 31 AUDIO
    TITLE "2:cjc143_1272"
    INDEX 01 00:34:24
  TRACK 32 AUDIO
    TITLE "0:"
    INDEX 01 00:35:59
  TRACK 33 AUDIO
    TITLE "2:cjc143_1273"
    INDEX 01 00:36:27
  TRACK 34 AUDIO
    TITLE "0:"
    INDEX 01 00:37:65
  TRACK 35 AUDIO
    TITLE "2:cjc143_1274"
    INDEX 01 00:38:37
  TRACK 36 AUDIO
    TITLE "0:"
    INDEX 01 00:40:34
  TRACK 37 AUDIO
    TITLE "2:cjc143_1275"
    INDEX 01 00:41:08
  TRACK 38 AUDIO
    TITLE "0:"
    INDEX 01 00:43:05
  TRACK 39 AUDIO
    TITLE "2:cjc143_1276"
    INDEX 01 00:43:52
  TRACK 40 AUDIO
    TITLE "0:"
    INDEX 01 00:46:07
  TRACK 41 AUDIO
    TITLE "2:cjc143_1277"
    INDEX 01 00:46:54
  TRACK 42 AUDIO
    TITLE "0:"
    INDEX 01 00:48:44
  TRACK 43 AUDIO
    TITLE "2:cjc143_1278"
    INDEX 01 00:49:16
  TRACK 44 AUDIO
    TITLE "0:"
    INDEX 01 00:51:20
  TRACK 45 AUDIO
    TITLE "2:cjc143_1279"
    INDEX 01 00:51:67
  TRACK 46 AUDIO
    TITLE "0:"
    INDEX 01 00:54:13
  TRACK 47 AUDIO
    TITLE "2:cjc143_1280"
    INDEX 01 00:54:64
  TRACK 48 AUDIO
    TITLE "0:"
    INDEX 01 00:56:25
  TRACK 49 AUDIO
    TITLE "2:cjc143_1281"
    INDEX 01 00:56:71
  TRACK 50 AUDIO
    TITLE "0:"
    INDEX 01 00:58:42
  TRACK 51 AUDIO
    TITLE "2:cjc143_1282"
    INDEX 01 00:59:12
  TRACK 52 AUDIO
    TITLE "0:"
    INDEX 01 01:00:49
  TRACK 53 AUDIO
    TITLE "2:cjc143_1283"
    INDEX 01 01:01:21
  TRACK 54 AUDIO
    TITLE "0:"
    INDEX 01 01:02:52
  TRACK 55 AUDIO
    TITLE "2:cjc143_1284"
    INDEX 01 01:03:20
  TRACK 56 AUDIO
    TITLE "0:"
    INDEX 01 01:04:58
  TRACK 57 AUDIO
    TITLE "2:cjc143_1285"
    INDEX 01 01:05:28
  TRACK 58 AUDIO
    TITLE "0:"
    INDEX 01 01:07:14
  TRACK 59 AUDIO
    TITLE "2:cjc143_1286"
    INDEX 01 01:07:57
  TRACK 60 AUDIO
    TITLE "0:"
    INDEX 01 01:09:22
  TRACK 61 AUDIO
    TITLE "2:cjc143_1287"
    INDEX 01 01:09:69
  TRACK 62 AUDIO
    TITLE "0:"
    INDEX 01 01:12:05
  TRACK 63 AUDIO
    TITLE "2:cjc143_1288"
    INDEX 01 01:12:48
  TRACK 64 AUDIO
    TITLE "0:"
    INDEX 01 01:14:23
  TRACK 65 AUDIO
    TITLE "2:cjc143_1289"
    INDEX 01 01:14:74
  TRACK 66 AUDIO
    TITLE "0:"
    INDEX 01 01:16:30
  TRACK 67 AUDIO
    TITLE "2:cjc143_1290"
    INDEX 01 01:16:71
  TRACK 68 AUDIO
    TITLE "0:"
    INDEX 01 01:18:31
